<svg width="32" height="32" viewBox="0 0 32 32" fill="none" xmlns="http://www.w3.org/2000/svg">
<path d="M16 22.7301C14.5276 22.7298 13.0639 22.5038 11.66 22.0601C11.5253 22.0223 11.3999 21.9566 11.2922 21.8673C11.1844 21.778 11.0966 21.6671 11.0344 21.5418C10.9722 21.4164 10.937 21.2794 10.931 21.1396C10.9251 20.9998 10.9486 20.8602 11 20.7301C11.0961 20.4911 11.2808 20.2984 11.5156 20.1922C11.7503 20.086 12.017 20.0745 12.26 20.1601C14.6844 20.925 17.2856 20.925 19.71 20.1601C19.953 20.0745 20.2197 20.086 20.4544 20.1922C20.6892 20.2984 20.8738 20.4911 20.97 20.7301V20.7301C21.0217 20.8589 21.046 20.9972 21.0414 21.1359C21.0367 21.2747 21.0032 21.411 20.943 21.5361C20.8828 21.6612 20.7972 21.7724 20.6917 21.8626C20.5861 21.9528 20.463 22.0201 20.33 22.0601C18.9293 22.5028 17.469 22.7288 16 22.7301V22.7301Z" fill="#E4A827"/>
<path d="M27.5 26.6901H4.5C3.57174 26.6901 2.6815 26.3213 2.02513 25.6649C1.36875 25.0086 1 24.1183 1 23.1901V8.81006C1 7.8818 1.36875 6.99156 2.02513 6.33519C2.6815 5.67881 3.57174 5.31006 4.5 5.31006H27.5C28.4283 5.31006 29.3185 5.67881 29.9749 6.33519C30.6313 6.99156 31 7.8818 31 8.81006V23.1901C31 24.1183 30.6313 25.0086 29.9749 25.6649C29.3185 26.3213 28.4283 26.6901 27.5 26.6901V26.6901ZM4.5 7.31006C4.10218 7.31006 3.72064 7.46809 3.43934 7.7494C3.15804 8.0307 3 8.41223 3 8.81006V23.1901C3 23.5879 3.15804 23.9694 3.43934 24.2507C3.72064 24.532 4.10218 24.6901 4.5 24.6901H27.5C27.8978 24.6901 28.2794 24.532 28.5607 24.2507C28.842 23.9694 29 23.5879 29 23.1901V8.81006C29 8.41223 28.842 8.0307 28.5607 7.7494C28.2794 7.46809 27.8978 7.31006 27.5 7.31006H4.5Z" fill="#E4A827"/>
<path d="M16 14.7801C15.218 14.7809 14.4493 14.5776 13.77 14.1901L2.51999 8.19005L3.45999 6.43005L14.74 12.4301C15.1176 12.6458 15.5451 12.7592 15.98 12.7592C16.4149 12.7592 16.8423 12.6458 17.22 12.4301L28.52 6.43005L29.46 8.19005L18.18 14.1901C17.5169 14.5726 16.7655 14.7759 16 14.7801Z" fill="#E4A827"/>
</svg>
