<svg viewBox="0 0 455 455" xmlns="http://www.w3.org/2000/svg" xmlns:xlink="http://www.w3.org/1999/xlink"><style>:root&gt;svg{display:none}:root&gt;svg:target{display:block}</style><svg viewBox="0 0 60.734 60.733" id="facebook-logo" xmlns="http://www.w3.org/2000/svg"><path d="M57.378.001H3.352A3.352 3.352 0 000 3.353v54.026a3.353 3.353 0 003.352 3.354h29.086V37.214h-7.914v-9.167h7.914v-6.76c0-7.843 4.789-12.116 11.787-12.116 3.355 0 6.232.251 7.071.36v8.198l-4.854.002c-3.805 0-4.539 1.809-4.539 4.462v5.851h9.078l-1.187 9.166h-7.892v23.52h15.475a3.355 3.355 0 003.355-3.351V3.351a3.352 3.352 0 00-3.354-3.35z"/></svg><svg viewBox="0 0 24 24" id="instagram-logo" xmlns="http://www.w3.org/2000/svg"><path d="M16.5 0h-9A7.5 7.5 0 000 7.5v9A7.5 7.5 0 007.5 24h9a7.5 7.5 0 007.5-7.5v-9A7.5 7.5 0 0016.5 0zm5.25 16.5a5.256 5.256 0 01-5.25 5.25h-9a5.256 5.256 0 01-5.25-5.25v-9A5.256 5.256 0 017.5 2.25h9a5.256 5.256 0 015.25 5.25v9z"/><path d="M12 6a6 6 0 100 12 6 6 0 000-12zm0 9.75A3.755 3.755 0 018.25 12 3.754 3.754 0 0112 8.25 3.754 3.754 0 0115.75 12 3.755 3.755 0 0112 15.75zm6.45-9.4a.8.8 0 100-1.6.8.8 0 000 1.6z"/></svg><svg viewBox="0 0 24 24" id="odonklassniki-logo" xmlns="http://www.w3.org/2000/svg"><path d="M12.013 9.597a2.4 2.4 0 002.402-2.423A2.407 2.407 0 0012 4.761a2.41 2.41 0 00-2.42 2.442 2.406 2.406 0 002.432 2.394z"/><path d="M22.723 0H1.277C.572 0 0 .571 0 1.277v21.446C0 23.43.572 24 1.277 24h21.446C23.43 24 24 23.429 24 22.723V1.277C24 .57 23.429 0 22.723 0zM12.02 2.238c2.732.007 4.925 2.242 4.912 5.005-.015 2.699-2.244 4.886-4.971 4.877-2.7-.01-4.914-2.248-4.9-4.952a4.95 4.95 0 014.96-4.93zm5.534 11.823c-.604.62-1.331 1.069-2.14 1.383-.763.295-1.6.444-2.428.544.125.136.184.202.262.28 1.124 1.13 2.253 2.256 3.374 3.389.381.386.462.864.252 1.314-.23.491-.745.814-1.25.779-.32-.023-.569-.182-.79-.404-.849-.854-1.713-1.692-2.544-2.561-.242-.253-.358-.206-.572.014-.854.879-1.72 1.744-2.593 2.604-.392.387-.858.456-1.313.236-.483-.234-.79-.727-.766-1.223.016-.335.18-.591.41-.821 1.113-1.11 2.223-2.225 3.333-3.338.074-.073.142-.152.249-.266-1.514-.158-2.879-.53-4.047-1.445-.145-.113-.294-.223-.427-.35-.511-.492-.563-1.053-.158-1.633.346-.496.927-.63 1.531-.345.117.055.229.124.335.198 2.178 1.496 5.17 1.538 7.355.068.216-.165.448-.302.716-.37.523-.134 1.008.057 1.289.514.32.52.316 1.028-.078 1.433z"/></svg><svg viewBox="0 0 455 455" id="vk-logo" xmlns="http://www.w3.org/2000/svg"><path d="M0 0v455h455V0H0zm341.098 251.727c10.445 10.19 21.49 19.784 30.865 31.049 4.142 4.978 8.06 10.113 11.046 15.881 4.239 8.264.397 17.318-6.985 17.817l-45.875-.02c-11.841.973-21.277-3.801-29.235-11.902-6.328-6.45-12.243-13.354-18.352-20.023-2.486-2.746-5.115-5.314-8.239-7.362-6.267-4.061-11.703-2.828-15.285 3.699-3.643 6.649-4.499 14.031-4.835 21.435-.499 10.807-3.76 13.634-14.607 14.154-23.208 1.075-45.218-2.451-65.659-14.134-18.052-10.307-32.022-24.879-44.184-41.356-23.702-32.124-41.855-67.391-58.154-103.673-3.684-8.177-.993-12.559 7.999-12.717 14.99-.296 29.974-.26 44.943-.02 6.089.102 10.129 3.582 12.458 9.334 8.101 19.906 18.01 38.85 30.448 56.427 3.327 4.677 6.71 9.334 11.504 12.636 5.314 3.663 9.375 2.466 11.881-3.485 1.595-3.78 2.293-7.8 2.629-11.841 1.192-13.833 1.335-27.681-.718-41.473-1.274-8.621-6.149-14.195-14.745-15.825-4.382-.836-3.725-2.446-1.615-4.958 3.704-4.315 7.189-7.006 14.093-7.006h51.847c8.177 1.595 10.011 5.278 11.122 13.497l.041 57.619c-.097 3.184 1.595 12.615 7.306 14.704 4.575 1.513 7.622-2.171 10.368-5.075 12.417-13.176 21.277-28.756 29.194-44.877 3.505-7.087 6.532-14.449 9.477-21.817 2.17-5.452 5.553-8.137 11.703-8.04l49.916.061c1.472 0 2.986 0 4.438.239 8.396 1.452 10.705 5.075 8.096 13.293-4.076 12.875-12.06 23.625-19.84 34.391-8.341 11.525-17.216 22.647-25.495 34.233-7.562 10.609-6.966 15.943 2.449 25.135z" clip-rule="evenodd"/></svg><svg viewBox="0 0 28 25" id="wishlist-icon" xmlns="http://www.w3.org/2000/svg"><path d="M25.094 2.42A7.48 7.48 0 0019.752.2c-2.02 0-3.918.79-5.347 2.225l-.747.749-.758-.761A7.518 7.518 0 007.547.184 7.49 7.49 0 002.21 2.402 7.522 7.522 0 000 7.768c0 2.027.793 3.926 2.222 5.36l10.869 10.907a.777.777 0 001.1.006l10.891-10.89A7.552 7.552 0 0027.3 7.787a7.516 7.516 0 00-2.205-5.366zm-1.111 9.623L13.64 22.38 3.32 12.025a5.99 5.99 0 01-1.758-4.257 5.96 5.96 0 011.753-4.25 5.94 5.94 0 014.23-1.76c1.604 0 3.114.627 4.249 1.765l1.307 1.313a.777.777 0 001.106 0l1.296-1.301a5.958 5.958 0 014.242-1.766c1.598 0 3.102.628 4.237 1.76a5.984 5.984 0 011.753 4.257 5.96 5.96 0 01-1.753 4.257z"/></svg><svg viewBox="0 0 24 25" id="search-icon" xmlns="http://www.w3.org/2000/svg"><path d="M23.706 22.557l-5.77-5.79a10.135 10.135 0 002.293-6.434c0-5.603-4.531-10.15-10.115-10.15C4.526.184 0 4.73 0 10.334c0 5.603 4.526 10.15 10.114 10.15 2.435 0 4.663-.86 6.407-2.296l5.77 5.785a.997.997 0 001.415 0 1 1 0 000-1.415zm-13.592-4.094c-4.472 0-8.106-3.647-8.106-8.13 0-4.482 3.634-8.134 8.106-8.134 4.467 0 8.106 3.652 8.106 8.134 0 4.483-3.639 8.13-8.106 8.13z"/></svg><svg viewBox="0 0 551.13 551.13" id="signin-icon" xmlns="http://www.w3.org/2000/svg"><path d="M499.462 0H120.56c-9.52 0-17.223 7.703-17.223 17.223v51.668h34.446V34.446h344.456v482.239H137.783v-34.446h-34.446v51.668c0 9.52 7.703 17.223 17.223 17.223h378.902c9.52 0 17.223-7.703 17.223-17.223V17.223c0-9.52-7.704-17.223-17.223-17.223z"/><path d="M204.588 366.725l24.354 24.354 115.514-115.514-115.514-115.514-24.354 24.354 73.937 73.937H34.446v34.446h244.08z"/></svg><svg viewBox="0 0 28 32" id="cart-icon" xmlns="http://www.w3.org/2000/svg"><path fill-rule="evenodd" clip-rule="evenodd" d="M20.571 6.857h6.858V32H0V6.857h6.857a6.857 6.857 0 0113.714 0zm-2.285 2.286H9.143v1.143h9.143V9.143zm-11.429 0v3.428h2.286v-2.285h9.143v2.285h2.285V9.143h4.572v20.571H2.286V9.143h4.571zm2.286-2.286a4.571 4.571 0 019.143 0H9.143z"/></svg><svg id="arrow-icon" viewBox="0 0 13 25" xmlns="http://www.w3.org/2000/svg"><path d="M12.482 11.552L1.161.2a.68.68 0 10-.96.963l10.838 10.868L.199 22.898a.683.683 0 00.478 1.165.662.662 0 00.479-.202L12.477 12.51a.679.679 0 00.005-.958z"/></svg><svg viewBox="0 0 512 512" id="zoom-in" xmlns="http://www.w3.org/2000/svg"><path d="M386.348 336.165c23.574-34.148 37.408-75.546 37.408-120.19 0-117.015-94.843-211.878-211.878-211.878S0 98.959 0 215.974s94.843 211.878 211.878 211.878c48.849 0 93.8-16.572 129.637-44.338l124.388 124.388L512 461.812 386.348 336.165zm-174.47 46.052c-91.667 0-166.243-74.574-166.243-166.243 0-91.667 74.574-166.243 166.243-166.243s166.243 74.574 166.243 166.243-74.576 166.243-166.243 166.243z"/><path d="M234.695 196.417v-81.493H189.06v81.493h-81.491v45.635h81.491v81.491h45.635v-81.491h81.492v-45.635z"/></svg><svg fill="none" viewBox="0 0 80 48" id="maestro-logo" xmlns="http://www.w3.org/2000/svg"><path d="M40 32.889c2.413-2.159 3.937-5.334 3.937-8.889 0-3.556-1.524-6.667-3.937-8.889C37.905 13.206 35.048 12 32 12c-6.603 0-12 5.397-12 12s5.397 11.937 12 11.937c3.048.063 5.905-1.143 8-3.048z" fill="#07A9E2"/><path d="M20 24c0 6.603 5.397 11.937 12 11.937 3.111 0 5.905-1.143 8-3.112 2.413-2.158 3.937-5.333 3.937-8.889 0-3.555-1.524-6.603-3.937-8.825C37.905 13.206 35.048 12 32 12" fill="#009DDD"/><path d="M40 15.111C37.904 13.206 35.047 12 32 12h-.572c-3.746 2.73-6.159 7.111-6.159 12s2.413 9.27 6.096 11.937h.571c3.111 0 5.905-1.143 8-3.112 2.413-2.158 3.937-5.333 3.937-8.889 0-3.555-1.46-6.603-3.873-8.825z" fill="#0284CC"/><path d="M48.063 12c-3.11 0-5.904 1.143-8.063 3.111-.444.381-.825.825-1.206 1.27h2.412c.318.38.635.825.89 1.27H37.84c-.254.444-.508.825-.698 1.27h5.65c.191.444.382.825.508 1.27h-6.603c-.127.444-.254.825-.38 1.27h7.364c.19.825.254 1.65.254 2.539 0 1.333-.19 2.603-.635 3.81h-6.603c.127.444.318.825.508 1.27h5.651a8.16 8.16 0 01-.698 1.27h-4.254c.254.444.571.888.889 1.269h2.412c-.38.444-.762.889-1.206 1.27C42.159 34.794 44.952 36 48.063 36A11.923 11.923 0 0060 24.064C60 17.397 54.667 12 48.063 12z" fill="#FF2957"/><path d="M48.063 12c-3.11 0-5.904 1.143-8.063 3.111-.444.381-.825.825-1.206 1.27h2.412c.318.38.635.825.89 1.27H37.84c-.254.444-.508.825-.698 1.27h5.65c.191.444.382.825.508 1.27h-6.603c-.127.444-.254.825-.38 1.27h7.364c.19.825.254 1.65.254 2.539 0 1.333-.19 2.603-.635 3.81h-6.603c.127.444.318.825.508 1.27h5.651a8.16 8.16 0 01-.698 1.27h-4.254c.254.444.571.888.889 1.269h2.412c-.38.444-.762.889-1.206 1.27C42.159 34.794 44.952 36 48.063 36A11.923 11.923 0 0060 24.064" fill="#ED1C2E"/><path d="M40 32.889c2.413-2.159 3.937-5.334 3.937-8.889 0-3.556-1.524-6.667-3.937-8.889V32.89z" fill="#0466B5"/><path d="M55.873 26.603c0-.19.19-.38.381-.38.19 0 .381.19.381.38a.41.41 0 01-.381.381.41.41 0 01-.381-.38zm.381.318c.19 0 .254-.127.254-.318 0-.19-.127-.254-.254-.254-.19 0-.317.127-.317.254s.19.318.317.318zm0-.19h-.063v-.318h.19l.063.063c0 .064 0 .064-.063.064l.063.127h-.063l-.063-.127h-.064v.19zm0-.191h.064v-.064h-.064v.064z" fill="#fff"/><path d="M40 15.111c-.444.381-.825.825-1.206 1.27h2.412c.318.38.635.825.89 1.27H37.84c-.254.444-.508.825-.698 1.27h5.65c.191.444.382.825.508 1.27h-6.603c-.127.444-.254.825-.38 1.27h7.364c.19.825.254 1.65.254 2.539 0 1.333-.19 2.603-.635 3.81h-6.603c.127.444.318.825.508 1.27h5.651a8.16 8.16 0 01-.698 1.27h-4.254c.254.444.571.888.889 1.269h2.412c-.38.444-.762.889-1.206 1.27 2.159 1.905 4.952 3.11 8.063 3.11h.572a14.757 14.757 0 006.095-11.936c0-4.889-2.413-9.27-6.095-11.936h-.572C44.953 12 42.16 13.207 40 15.11z" fill="#D1094B"/><path d="M30.476 26.984h-1.524l.89-4.635-2.032 4.635h-1.334l-.254-4.635-.889 4.635H24l1.143-6.095h2.35l.126 3.81 1.65-3.81h2.414l-1.207 6.095z" fill="#fff"/><path d="M29.015 24.317l.889-1.968-.699 3.683c.064.317.127.698.254 1.016h1.016l1.143-6.096h-2.222c-.254.953-.445 2.032-.445 3.111.064.064.064.128.064.255zM47.11 26.92c-.444.128-.697.191-1.078.191-.762 0-1.143-.38-1.143-1.08 0-.126 0-.253.063-.444l.064-.508.063-.38.699-3.747h1.46l-.19 1.143h.761l-.19 1.143h-.762l-.381 2.032c0 .063-.063.19-.063.19 0 .254.19.381.507.381.19 0 .318 0 .381-.063l-.19 1.143zm4.383-4.825c-.127-.063-.127-.063-.19-.063-.064 0-.127 0-.127-.064h-.19c-.509 0-.826.19-1.27.826l.126-.762H48.51l-.889 4.952h1.524c.508-3.048.762-3.556 1.46-3.556h.19l.191.064.508-1.397zm-10.287 1.524c0 .635.381 1.08 1.143 1.333.635.254.699.318.699.572 0 .317-.255.444-.89.444-.444 0-.888-.063-1.333-.19l-.19 1.143h.063l.254.063h.381c.381.063.635.063.826.063 1.587 0 2.349-.507 2.349-1.65 0-.699-.318-1.08-1.08-1.397-.634-.254-.698-.318-.698-.508 0-.254.254-.381.762-.381.254 0 .698 0 1.08.063l.19-1.142c-.381-.064-.953-.064-1.334-.064-1.65 0-2.222.762-2.222 1.65zm-5.903 3.365h-1.207v-.508c-.38.381-.888.572-1.587.572-.825 0-1.333-.572-1.333-1.334 0-1.206.952-1.905 2.603-1.905h.635c.063-.19.063-.254.063-.317 0-.318-.254-.445-.952-.445-.444 0-.889.064-1.206.127l-.19.064H32l.19-1.08c.763-.19 1.207-.253 1.778-.253 1.27 0 1.969.508 1.969 1.46 0 .254 0 .444-.127 1.016l-.318 1.778-.063.317-.064.254v.19l-.063.064zm-1.08-2.222h-.317c-.825 0-1.27.254-1.27.762 0 .317.19.508.508.508.635 0 1.08-.508 1.08-1.27zm5.967 2.095a6.26 6.26 0 01-1.523.19c-1.651 0-2.54-.761-2.54-2.222 0-1.714 1.08-2.92 2.603-2.92 1.207 0 1.968.698 1.968 1.777 0 .381-.063.699-.19 1.207h-2.984v.19c0 .572.444.89 1.27.89.571 0 1.016-.064 1.523-.318l-.127 1.206zm-.761-2.92v-.255c0-.38-.254-.634-.699-.634-.444 0-.825.317-.952.888h1.65z" fill="#DCE5E5"/><path d="M56.126 24.762c-.254 1.65-1.396 2.35-2.92 2.35-1.651 0-2.35-1.017-2.35-2.287 0-1.714 1.143-2.92 2.921-2.92 1.524 0 2.35 1.016 2.35 2.222v.635zm-1.587-.635c0-.508-.19-.952-.825-.952-.762 0-1.207.889-1.207 1.714 0 .635.318 1.08.826 1.08.317 0 1.016-.445 1.142-1.207.064-.254.064-.445.064-.635z" fill="#fff"/><path d="M50.92 25.397c.064-.445.128-.952.128-1.397v-.127c-.064.317-.127.635-.127 1.016-.064.127-.064.317 0 .508z" fill="#fff"/><rect x=".5" y=".5" width="79" height="47" rx="7.5" stroke="#D8D8D8"/></svg><svg fill="none" viewBox="0 0 80 48" id="visa-logo" xmlns="http://www.w3.org/2000/svg"><path d="M33.352 31.581l2.68-15.078h4.189L37.624 31.58h-4.272z" fill="#3C58BF"/><path d="M33.352 31.581l3.434-15.078h3.435L37.624 31.58h-4.272z" fill="#293688"/><path d="M52.785 16.67c-.837-.335-2.177-.67-3.853-.67-4.188 0-7.204 2.094-7.204 5.11 0 2.262 2.094 3.434 3.77 4.188 1.675.754 2.178 1.257 2.178 1.927 0 1.005-1.34 1.508-2.514 1.508-1.675 0-2.596-.251-4.02-.838l-.587-.251-.586 3.435c1.005.418 2.848.837 4.775.837 4.44 0 7.371-2.094 7.371-5.277 0-1.76-1.089-3.1-3.602-4.189-1.508-.754-2.43-1.172-2.43-1.926 0-.67.755-1.34 2.43-1.34 1.424 0 2.43.25 3.184.586l.418.167.67-3.267z" fill="#3C58BF"/><path d="M52.785 16.67c-.837-.335-2.177-.67-3.853-.67-4.188 0-6.45 2.094-6.45 5.11 0 2.262 1.34 3.434 3.016 4.188 1.675.754 2.178 1.257 2.178 1.927 0 1.005-1.34 1.508-2.514 1.508-1.675 0-2.596-.251-4.02-.838l-.587-.251-.586 3.435c1.005.418 2.848.837 4.775.837 4.44 0 7.371-2.094 7.371-5.277 0-1.76-1.089-3.1-3.602-4.189-1.508-.754-2.43-1.172-2.43-1.926 0-.67.755-1.34 2.43-1.34 1.424 0 2.43.25 3.184.586l.418.167.67-3.267z" fill="#293688"/><path d="M59.99 16.503c-1.006 0-1.76.084-2.179 1.089l-6.283 13.99h4.524l.838-2.514h5.36l.504 2.513h4.02l-3.518-15.078H59.99zm-1.928 10.052c.252-.754 1.676-4.44 1.676-4.44s.335-.921.586-1.508l.252 1.425s.837 3.77 1.005 4.607h-3.519v-.084z" fill="#3C58BF"/><path d="M60.994 16.503c-1.005 0-1.759.084-2.178 1.089l-7.288 13.99h4.524l.838-2.514h5.36l.504 2.513h4.02l-3.518-15.078h-2.262zm-2.932 10.052c.335-.838 1.676-4.44 1.676-4.44s.335-.921.586-1.508l.252 1.425s.837 3.77 1.005 4.607h-3.519v-.084z" fill="#293688"/><path d="M25.644 27.058l-.419-2.178c-.754-2.514-3.183-5.278-5.864-6.618l3.77 13.403h4.523l6.786-15.079h-4.524l-4.272 10.472z" fill="#3C58BF"/><path d="M25.644 27.058l-.419-2.178c-.754-2.514-3.183-5.278-5.864-6.618l3.77 13.403h4.523l6.786-15.079h-3.686l-5.11 10.472z" fill="#293688"/><path d="M14 16.503l.754.167c5.361 1.257 9.047 4.44 10.471 8.21l-1.508-7.12c-.251-1.006-1.005-1.257-1.926-1.257H14z" fill="#FFBC00"/><path d="M14 16.503c5.361 1.256 9.801 4.523 11.225 8.293l-1.424-5.948c-.251-1.005-1.089-1.591-2.01-1.591L14 16.503z" fill="#F7981D"/><path d="M14 16.503c5.361 1.256 9.801 4.523 11.225 8.293l-1.005-3.267c-.251-1.005-.586-2.01-1.76-2.43L14 16.503z" fill="#ED7C00"/><path d="M29.833 26.555l-2.848-2.848-1.34 3.183-.336-2.094c-.754-2.513-3.183-5.278-5.864-6.618l3.77 13.403h4.523l2.095-5.026zm7.791 5.026l-3.602-3.686-.67 3.686h4.272zm9.633-5.194c.335.335.502.587.419.922 0 1.005-1.34 1.508-2.514 1.508-1.675 0-2.596-.252-4.02-.838l-.587-.251-.586 3.434c1.005.42 2.848.838 4.775.838 2.68 0 4.858-.754 6.115-2.094l-3.602-3.518zm4.858 5.194h3.937l.838-2.513h5.361l.503 2.513h4.02l-1.423-6.115-5.026-4.859.251 1.34s.838 3.77 1.005 4.608h-3.518c.335-.838 1.675-4.44 1.675-4.44s.335-.921.587-1.508" fill="#051244"/><rect x=".5" y=".5" width="79" height="47" rx="7.5" stroke="#D8D8D8"/></svg></svg>