<svg viewBox="0 0 26 20" xmlns="http://www.w3.org/2000/svg" xmlns:xlink="http://www.w3.org/1999/xlink"><style>:root&gt;svg{display:none}:root&gt;svg:target{display:block}</style><svg viewBox="0 0 10 20" id="facebook" xmlns="http://www.w3.org/2000/svg"><path fill-rule="evenodd" clip-rule="evenodd" d="M6.654 19.173H2.563V9.679H.518V6.406h2.045V4.442c0-2.67 1.155-4.258 4.433-4.258h2.73v3.273H8.02c-1.278 0-1.362.458-1.362 1.312l-.005 1.637h3.092l-.362 3.273h-2.73v9.494z"/></svg><svg viewBox="0 0 20 19" id="twitch" xmlns="http://www.w3.org/2000/svg"><path fill-rule="evenodd" clip-rule="evenodd" d="M19.96 13.625V.68H2.94L.81 2.977v12.11h5.32v3.758h2.34l2.553-2.714h6.383l2.553-2.506zm-12.553-.209H4.003A.423.423 0 013.577 13V2.769c0-.23.192-.418.426-.418H17.62c.234 0 .425.188.425.417v7.934a.41.41 0 01-.122.298l-2.34 2.296a.435.435 0 01-.304.12h-3.91L8.073 15.64a.43.43 0 01-.436.026.412.412 0 01-.23-.37v-1.88z"/><path d="M13.79 9.763V5.587h-1.702v4.176h1.702zm-4.255 0V5.587H7.833v4.176h1.702z"/></svg><svg viewBox="0 0 22 17" id="twitter" xmlns="http://www.w3.org/2000/svg"><path fill-rule="evenodd" clip-rule="evenodd" d="M21.214 2.43a9.062 9.062 0 01-2.475.635c.89-.5 1.573-1.292 1.895-2.234a9.05 9.05 0 01-2.738.98A4.437 4.437 0 0014.75.535c-2.38 0-4.311 1.809-4.311 4.039 0 .317.038.626.112.92-3.582-.168-6.758-1.776-8.884-4.22a3.829 3.829 0 00-.583 2.032c0 1.4.76 2.638 1.917 3.362a4.527 4.527 0 01-1.952-.506v.052c0 1.957 1.485 3.589 3.457 3.96a4.696 4.696 0 01-1.946.07c.548 1.603 2.14 2.772 4.026 2.805a9.023 9.023 0 01-5.353 1.728c-.348 0-.691-.02-1.028-.056a12.81 12.81 0 006.607 1.815c7.928 0 12.263-6.156 12.263-11.493 0-.176-.005-.35-.013-.523a8.503 8.503 0 002.15-2.09z"/></svg><svg viewBox="0 0 26 19" id="youtube" xmlns="http://www.w3.org/2000/svg"><path d="M20.61.184H5.99C3.126.184.8 2.55.8 5.464v7.433c0 2.92 2.326 5.281 5.19 5.281h14.615c2.868 0 5.19-2.367 5.19-5.28V5.463C25.8 2.551 23.472.184 20.61.184zm-3.514 9.364l-6.838 3.316a.272.272 0 01-.39-.254V5.768c0-.21.216-.342.395-.248L17.1 9.046a.281.281 0 01-.005.502z"/></svg></svg>