<svg xmlns="http://www.w3.org/2000/svg" width="74" height="86" viewBox="0 0 74 86"><g><g><g><path fill="#fe8682" d="M-.005 21.501L37.002.003 74.009 21.5v42.996l-37.007 21.5-37.007-21.5z"/></g><g><path fill="#fc635e" d="M3.695 23.725L37.002 4.45l33.306 19.275v38.548L37.002 81.548 3.695 62.273z"/></g><g><path fill="#fff" d="M27.285 43.711h8.506v13.284H19.994V43.71c0-10.023 2.433-15.706 10.935-15.706v8.093c-3.644 0-3.644.726-3.644 5.075zm26.72 0v13.284H38.218V43.71c0-10.023 2.43-15.706 10.932-15.706v8.094c-3.643 0-3.643.726-3.643 5.075v2.537z"/></g></g></g></svg>