<svg xmlns="http://www.w3.org/2000/svg" width="38" height="38" viewBox="0 0 38 38"><g><g><path fill="#fc635e" d="M19-.002c10.493 0 19 8.506 19 19 0 10.493-8.507 19-19 19-10.494 0-19-8.507-19-19 0-10.494 8.506-19 19-19z"/></g><g><path fill="#fff" d="M24.833 16.375c0 3.125-3.166 6.2-3.166 9.375h-6.334c0-3.076-3.166-6.25-3.166-9.375 0-3.452 2.835-6.25 6.333-6.25 3.497 0 6.333 2.798 6.333 6.25zm-3.166 13.281a.786.786 0 0 1-.792.781h-.145A2.363 2.363 0 0 1 18.5 32a2.363 2.363 0 0 1-2.23-1.563h-.145a.786.786 0 0 1-.792-.781c0-.432.354-.781.792-.781h4.75c.438 0 .792.35.792.78zm0-2.344a.786.786 0 0 1-.792.782h-4.75a.786.786 0 0 1-.792-.782c0-.431.354-.78.792-.78h4.75c.438 0 .792.349.792.78zM10.668 11.01l1.426.813c-.31.423-.577.871-.796 1.35l-1.421-.808zM18.5 8.562c-.272 0-.527.052-.792.08V7h1.584V8.64c-.265-.027-.52-.079-.792-.079zm-4.612 1.491l-.825-1.407 1.373-.781.82 1.402c-.486.217-.94.48-1.368.786zm11.816 3.12a7.764 7.764 0 0 0-.798-1.35l1.426-.813.791 1.355zm-2.592-3.121a8 8 0 0 0-1.367-.785l.82-1.402 1.37.781zm-12.445 7.104H9v-1.562h1.664c-.028.26-.08.512-.08.78 0 .266.052.523.083.782zM28 15.594v1.562h-1.667c.031-.26.084-.516.084-.781 0-.269-.053-.52-.08-.781zm-2.315 3.973l1.438.818-.791 1.353L25.036 21c.233-.472.45-.948.65-1.433zm-14.376.003c.196.485.412.964.644 1.437l-1.285.731-.791-1.353z"/></g></g></svg>