<svg xmlns="http://www.w3.org/2000/svg" width="38" height="38" viewBox="0 0 38 38"><g><g><path fill="#fc635e" d="M19-.002c10.493 0 19 8.506 19 19 0 10.493-8.507 19-19 19-10.494 0-19-8.507-19-19 0-10.494 8.506-19 19-19z"/></g><g><path fill="#fff" d="M29.981 15.11c.039.229 0 .603-.042.83l-1.726 9.218c-.043.228-.073.602-.12.829C27.855 27.13 26.67 28 25.509 28h-8.175c-.474 0-.914-.149-1.282-.4-.187-.128-.475-.355-.666-.476-.702-.445-1.505-.959-2.738-1.053a2.094 2.094 0 0 1-.76-.22l-1.172-.682a.797.797 0 0 1-.354-.626v-8.271c0-.231.171-.483.382-.562l2.722-1.011c.211-.079.544-.228.741-.339.968-.547 3.65-2.183 5.047-4.217C20.327 8.579 21.386 7 22.116 7c.443 0 .765.579.898 2.09.16 1.816-.14 2.882-.668 3.675-.126.192-.064.334.16.334h5.16c1.16 0 2.124.87 2.315 2.012zm-20.138.5v9.657c0 .387-.303.7-.677.7h-1.49a.689.689 0 0 1-.676-.7v-9.656c0-.387.303-.7.677-.7h1.49c.373 0 .676.313.676.7z"/></g></g></svg>