<svg width="3099" height="2323" viewBox="0 0 3099 2323" fill="none" xmlns="http://www.w3.org/2000/svg">
<g clip-path="url(#clip0)">
<path d="M441.5 1525C1053.16 1525 1549 1028.93 1549 417C1549 -194.932 1053.16 -691 441.5 -691C-170.155 -691 -666 -194.932 -666 417C-666 1028.93 -170.155 1525 441.5 1525Z" fill="#FF4656"/>
<path d="M412 2584C541.787 2584 647 2478.79 647 2349C647 2219.21 541.787 2114 412 2114C282.213 2114 177 2219.21 177 2349C177 2478.79 282.213 2584 412 2584Z" fill="#EFEFEF"/>
<path d="M143.5 2145C160.897 2145 175 2130.9 175 2113.5C175 2096.1 160.897 2082 143.5 2082C126.103 2082 112 2096.1 112 2113.5C112 2130.9 126.103 2145 143.5 2145Z" fill="#505155"/>
<path d="M2739.5 2835C3137.97 2835 3461 2511.97 3461 2113.5C3461 1715.03 3137.97 1392 2739.5 1392C2341.03 1392 2018 1715.03 2018 2113.5C2018 2511.97 2341.03 2835 2739.5 2835Z" fill="#292C31"/>
</g>
<defs>
<clipPath id="clip0">
<rect width="3099" height="2323" fill="white"/>
</clipPath>
</defs>
</svg>
