<svg xmlns="http://www.w3.org/2000/svg">
<symbol id="btn-next" viewBox="0 0 14 19">
        <g>
        <path d="M14 9.5L0.499999 0.406732L0.5 18.5933L14 9.5Z"/>
        </g>
    </symbol>
    <symbol id="phoenix-skills" viewBox="0 0 356 72">
        <g>
            <path  d="M48.8253 0L38.9446 19.5112C42.1634 22.5578 44.17 26.8632 44.17 31.6355C44.17 32.6713 44.0754 33.6852 43.8946 34.6688L53 41.997L42.1638 39.5701C39.7246 44.0695 35.2753 47.3288 30.0145 48.1536L27.3838 72L25.2151 48.2195C23.6478 48.0181 22.1483 47.6013 20.7474 47.0001L14.6727 51.0776L17.3265 45.0254C13.4109 42.102 10.8198 37.5139 10.611 32.3153L0 28.2009L11.2462 27.0165C11.9242 24.6613 13.1077 22.5191 14.6723 20.7136L14.6727 16.5244L19.6956 16.7665C21.0923 16.0484 22.6032 15.5198 24.1941 15.2149H24.0266L26.6043 1.53565L29.1445 15.0042C31.0976 15.207 32.9512 15.7434 34.6467 16.5553L48.8253 0ZM27.3838 23.8318C23.0573 23.8318 19.5502 27.3257 19.5502 31.6355C19.5502 35.9454 23.0573 39.4393 27.3838 39.4393C31.7101 39.4393 35.2174 35.9454 35.2174 31.6355C35.2174 27.3257 31.7101 23.8318 27.3838 23.8318Z" />
            <path  d="M114.958 4C112.683 12.4565 109.638 28.4144 117.312 31.6382C122.429 33.7876 123.433 27.9053 120.327 13.9918C125.424 21.3133 127.616 28.3754 126.901 35.1782C127.849 35.7211 128.744 36.349 129.575 37.0512C130.798 36.3138 131.409 34.901 131.409 32.8149C132.733 35.2424 133.058 37.6461 132.383 40.0259C134.653 43.0531 136 46.8222 136 50.9074C136 60.8997 127.941 69 118 69C108.059 69 100 60.8997 100 50.9074C100 48.0276 100.669 45.305 101.86 42.888C100.69 40.1612 101.001 36.4107 102.794 31.6382C102.794 35.9353 103.602 36.9691 104.557 37.5771C104.826 37.7482 105.146 37.8472 105.519 37.8738C106.06 37.3471 106.633 36.8579 107.235 36.4056C106.291 23.9418 108.864 13.1394 114.958 4ZM118 42.3374C113.291 42.3374 109.474 46.1743 109.474 50.9074C109.474 54.5931 111.788 57.7353 115.036 58.9456C115.349 55.9813 116.576 53.9449 118.718 52.833C118.718 55.2085 118.409 57.6261 120.026 59.2334C123.759 58.3182 126.526 54.9376 126.526 50.9074C126.526 46.1743 122.709 42.3374 118 42.3374Z" />
            <path  d="M197.439 11.03C194.953 25.5257 197.804 46.4945 215.583 62C207.017 61.5963 200.18 60.4018 195.073 58.4166C198.192 56.42 199.752 55.4219 199.752 55.4219C181.726 43.5954 181.886 28.7607 183.92 24.9241C185.856 29.0753 187.896 31.5902 190.04 32.4689C189.381 23.2321 191.848 16.0858 197.439 11.03ZM237.561 11C243.152 16.0558 245.619 23.202 244.96 32.4389C247.104 31.5604 249.144 29.0453 251.08 24.8943C253.114 28.7306 253.274 43.5654 235.248 55.3919C235.248 55.3919 236.808 56.3902 239.927 58.3866C234.82 60.3718 227.983 61.5663 219.417 61.97C237.196 46.4645 240.047 25.4957 237.561 11ZM228.899 36.0605C229.789 40.9374 224.807 46.306 217.502 50.6421L217.502 50.6434H217.5C210.196 46.306 205.213 40.9374 206.103 36.0605C206.992 31.1828 215.042 29.5434 217.502 36.0605L217.5 36.0584L217.645 35.7002C220.262 29.6065 228.026 31.275 228.899 36.0605ZM217.5 20.439C219.617 20.439 221.333 22.1293 221.333 24.2145C221.333 26.2996 219.617 27.99 217.5 27.99C215.383 27.99 213.667 26.2996 213.667 24.2145C213.667 22.1293 215.383 20.439 217.5 20.439Z" />
            <path d="M336.764 15C346.381 16.5255 351.922 28.2564 352.254 32.2683C353.365 31.0123 353.723 28.937 353.327 26.0427C355.365 27.7653 355.956 28.8955 355.996 32.9993L355.998 33.4676L356 58C352.627 56.7592 348.408 55.742 343.616 55.0315L343.615 27.8506C343.615 23.433 340.091 17.4457 336.764 15ZM299.001 25.7853C304.863 37.7594 308.957 44.7233 311.282 46.6767L311.281 55.0413C306.533 55.7487 302.352 56.7573 299 57.9862L299.001 25.7853ZM328.539 15.3894C327.23 19.941 326.525 24.6148 326.424 29.4107L326.411 30.6123L326.412 53.9073C321.888 53.9465 317.566 54.2341 313.586 54.727L313.587 27.4655C313.587 23.0174 311.825 19.9392 309.7 17.5544C312.291 18.3832 314.203 19.9548 315.436 22.2692C317.285 25.7409 316.168 34.835 319.586 34.835C323.005 34.835 323.008 29.2027 323.397 24.929C323.656 22.0799 325.37 18.9001 328.539 15.3894ZM331.697 22.3226C331.645 29.0466 332.616 32.4086 334.611 32.4086C336.605 32.4086 337.171 29.351 336.31 23.2354C338.94 26.362 340.256 29.0679 340.256 31.3529L340.256 54.5947C336.741 54.1997 332.977 53.9628 329.056 53.9126V30.4907C329.056 26.8776 329.937 24.1549 331.697 22.3226ZM303.682 18.1662C307.36 20.3071 309.464 22.7237 309.995 25.4163L310.057 25.7853L306.083 33.9191C306.516 29.5591 305.715 24.3081 303.682 18.1662Z"/>
        </g>
    </symbol>
    <symbol id="jett-skills" viewBox="0 0 354 59">
        <g>
            <path d="M327.5 0L327.746 0.581669C330.264 6.6983 331.996 15.9263 332.942 28.2655L333.028 29.4315L329.084 34.3385V36.4377C330.055 36.4377 333.028 38.4726 333.028 41.6087C333.028 44.6083 331.066 46.0991 330.353 46.223L330.264 46.2314V56.6235C330.264 57.4174 329.461 57.8701 327.856 57.9814L327.5 58C325.657 57.933 324.736 57.4741 324.736 56.6235V46.2314C324.116 46.2314 321.972 44.7447 321.972 41.6087C321.972 38.4726 324.945 36.4377 325.916 36.4377V34.3385L321.972 29.4315C322.926 16.1022 324.768 6.29159 327.5 0ZM301.021 8.96575L301.422 9.35101C305.177 13.0347 309.254 19.1955 313.651 27.8333L314.124 28.7682L312.549 33.5639L313.179 35.0974C313.929 34.7993 316.836 35.3728 317.777 37.6638C318.718 39.9546 317.508 41.6992 317.029 41.8895C319.215 47.2118 320.436 50.1837 320.691 50.8052C320.928 51.382 320.45 51.9562 319.256 52.5276L318.968 52.6593C317.525 53.1762 316.675 53.124 316.42 52.5025L312.758 43.587C312.279 43.7773 310.176 43.3496 309.235 41.0587C308.294 38.7677 309.981 36.3685 310.731 36.0704L310.101 34.5367L305.581 32.1631C302.319 22.1332 300.799 14.4007 301.021 8.96575ZM353.979 8.96575C354.201 14.4007 352.682 22.1332 349.419 32.1631L344.899 34.5367L344.269 36.0704C345.019 36.3685 346.706 38.7677 345.765 41.0587C344.824 43.3496 342.721 43.7773 342.242 43.587L338.58 52.5025C338.325 53.124 337.475 53.1762 336.032 52.6593L335.744 52.5276C334.55 51.9562 334.072 51.382 334.309 50.8052C334.564 50.1837 335.785 47.2118 337.971 41.8895C337.492 41.6992 336.282 39.9546 337.223 37.6638C338.164 35.3728 341.071 34.7993 341.821 35.0974L342.451 33.5639L340.877 28.7682L341.349 27.8333C345.747 19.1955 349.823 13.0347 353.578 9.35101L353.979 8.96575ZM327.5 38.9688C325.973 38.9688 324.736 40.1861 324.736 41.6876C324.736 43.1891 325.973 44.4064 327.5 44.4064C329.027 44.4064 330.264 43.1891 330.264 41.6876C330.264 40.1861 329.027 38.9688 327.5 38.9688ZM312.714 37.4328C311.535 37.9016 310.944 39.1707 311.394 40.2676C311.845 41.3645 313.166 41.8737 314.346 41.405C315.525 40.9362 316.116 39.6671 315.665 38.5702C315.215 37.4733 313.893 36.9641 312.714 37.4328ZM342.286 37.4328C341.107 36.9641 339.785 37.4733 339.335 38.5702C338.884 39.6671 339.475 40.9362 340.654 41.405C341.834 41.8737 343.155 41.3645 343.606 40.2676C344.056 39.1707 343.465 37.9016 342.286 37.4328Z"/>
            <path d="M227.269 18.25C226.15 22.5358 223.35 24.6786 218.872 24.6786H192C193.12 21.4643 194.799 19.8571 197.038 19.8571H217.192C214.953 17.7143 212.714 16.6429 210.474 16.6429H202.077C203.146 14.5974 205.235 13.5282 208.344 13.4352L209.437 13.4197C214.25 13.286 218.8 11.6162 217.192 7H225.59L249.466 28.325C250.145 28.9307 250.181 29.9478 249.548 30.5966C249.522 30.6236 249.495 30.6497 249.466 30.675L225.59 52H217.192C218.872 47.1786 213.833 45.5714 208.795 45.5714C205.589 45.5714 203.402 44.5952 202.237 42.6427L202.077 42.3571H210.474C212.582 42.3571 214.689 41.4081 216.797 39.5099L217.192 39.1429H197.038C194.897 39.1429 193.267 37.6725 192.149 34.7316L192 34.3214H218.872C223.201 34.3214 225.961 36.3238 227.152 40.3286L227.269 40.75L239.026 29.5L227.269 18.25Z" />
            <path d="M120.533 42.3429L127.149 47.6167C127.541 47.9295 127.769 48.4029 127.769 48.9036V58L119.5 51.4076L111.231 58V48.9036C111.231 48.4029 111.459 47.9295 111.851 47.6167L118.467 42.3429C119.071 41.8614 119.929 41.8614 120.533 42.3429ZM120.606 22.7346L135.491 36.084C135.84 36.3965 136.038 36.8418 136.038 37.309V46.4635L120.606 32.623C119.977 32.059 119.023 32.059 118.394 32.623L102.962 46.4635V37.309C102.962 36.8418 103.16 36.3965 103.509 36.084L118.394 22.7346C119.023 22.1704 119.977 22.1704 120.606 22.7346ZM120.669 1.48271L140.031 20.7769C140.652 21.3951 141 22.2334 141 23.1076V34.9269L134.385 29.9828V25.7212C134.385 25.2841 134.21 24.8648 133.9 24.5557L120.669 11.3711C120.024 10.7275 118.976 10.7275 118.331 11.3711L105.1 24.5557C104.79 24.8648 104.615 25.2841 104.615 25.7212V29.9828L98 34.9269V23.1076C98 22.2334 98.3485 21.3951 98.9688 20.7769L118.331 1.48271C118.976 0.839098 120.024 0.839098 120.669 1.48271Z" />
            <path d="M24.5176 0C24.5176 2.49852 24.5465 4.41858 23.3404 6.71584L23.5 6.71404C36.4786 6.71404 47 17.3342 47 30.435C47 38.2908 43.2167 45.2548 37.3888 49.5716C35.4831 51.4224 31.1156 54.5657 24.2855 59C24.7147 57.1312 24.4847 55.5159 23.5955 54.1538L23.5 54.1559C10.5214 54.1559 0 43.5356 0 30.435C0 21.2562 5.16465 13.2953 12.7206 9.35117C18.8496 5.0701 22.7814 1.95293 24.5176 0ZM23.5 16.9435C16.0836 16.9435 10.0715 23.0121 10.0715 30.4982C10.0715 31.9083 10.2847 33.268 10.6805 34.5463C14.7006 37.4345 22.5148 35.7183 23.2749 27.1097C25.0457 34.0253 23.8094 40.947 15.2803 41.2176C17.5509 42.9949 20.403 44.0532 23.5 44.0532C30.9164 44.0532 36.9286 37.9844 36.9286 30.4982C36.9286 23.0121 30.9164 16.9435 23.5 16.9435Z" />
        </g>
    </symbol>
    <symbol id="sova-skills" viewBox="0 0 356 58">
        <g>
            <path d="M0 23.8824L15.25 40.9412L18.6389 34.1176L28.8056 58L18.6389 47.7647L15.25 54.5882L0 23.8824ZM61 23.8824L45.75 54.5882L42.3611 47.7647L32.1944 58L42.3611 34.1176L45.75 40.9412L61 23.8824ZM30.5 0C32.7592 13.6471 36.713 21.0392 42.3611 22.1765L30.5 46.0588L18.6389 22.1765C24.1824 21.0603 28.0937 13.9186 30.3727 0.751731L30.5 0Z" />
            <path d="M154.973 18C161.063 18 166 22.909 166 28.9648C166 35.0205 161.063 39.9295 154.973 39.9295C149.51 39.9295 144.974 35.9788 144.099 30.7938L142.108 30.7923V31.8628C142.108 32.3474 141.915 32.8122 141.57 33.1549L134.218 40.4648C133.501 41.1784 132.337 41.1784 131.619 40.4648L124.268 33.1549C123.923 32.8122 123.73 32.3474 123.73 31.8628V30.7923L119.901 30.7938C119.026 35.9788 114.49 39.9295 109.027 39.9295C102.937 39.9295 98 35.0205 98 28.9648C98 22.909 102.937 18 109.027 18C114.491 18 119.027 21.9517 119.902 27.1376L123.73 27.1372V19.9749C123.73 18.9655 124.553 18.1474 125.568 18.1474C125.985 18.1474 126.39 18.2885 126.716 18.5477L131.771 22.5691C132.442 23.103 133.396 23.103 134.067 22.5691L139.122 18.5477C139.915 17.9174 141.071 18.045 141.705 18.8333C141.966 19.1572 142.108 19.5599 142.108 19.9749V27.1372L144.098 27.1376C144.973 21.9517 149.509 18 154.973 18ZM109.027 23.4824C105.982 23.4824 103.514 25.937 103.514 28.9648C103.514 31.9925 105.982 34.4471 109.027 34.4471C111.427 34.4471 113.469 32.9224 114.226 30.7939L109.027 30.7923C108.012 30.7923 107.189 29.974 107.189 28.9648C107.189 27.9556 108.012 27.1372 109.027 27.1372L114.227 27.1374C113.47 25.0081 111.428 23.4824 109.027 23.4824ZM154.973 23.4824C152.572 23.4824 150.53 25.0081 149.773 27.1374L154.973 27.1372C155.988 27.1372 156.811 27.9556 156.811 28.9648C156.811 29.974 155.988 30.7923 154.973 30.7923L149.774 30.7939C150.531 32.9224 152.573 34.4471 154.973 34.4471C158.018 34.4471 160.486 31.9925 160.486 28.9648C160.486 25.937 158.018 23.4824 154.973 23.4824Z" />
            <path d="M258 49.375V56H208V49.375H258ZM230.169 9.79394L226.97 15.6021C219.807 18.0802 214.667 24.8497 214.667 32.8125C214.667 38.0337 216.877 42.7419 220.418 46.0637L213.85 46.0645C211.213 42.3083 209.667 37.7398 209.667 32.8125C209.667 20.9587 218.617 11.1825 230.169 9.79394ZM235.833 9.7941C247.384 11.1835 256.333 20.9594 256.333 32.8125C256.333 37.7398 254.787 42.3083 252.15 46.0645L245.581 46.064C249.123 42.7422 251.333 38.0338 251.333 32.8125C251.333 24.8509 246.194 18.0821 239.033 15.6032L235.833 9.7941ZM233 3C249.568 3 263 16.3476 263 32.8125C263 37.5724 261.877 42.0716 259.881 46.0633L256.098 46.0637C258.368 42.1655 259.667 37.6398 259.667 32.8125C259.667 18.1769 247.728 6.3125 233 6.3125C218.272 6.3125 206.333 18.1769 206.333 32.8125C206.333 37.6398 207.632 42.1655 209.901 46.0637L206.119 46.0633C204.123 42.0716 203 37.5724 203 32.8125C203 16.3476 216.431 3 233 3ZM233 9.625L243 29.5C239.667 28.3958 237.444 28.3958 236.333 29.5C235.222 30.6042 234.111 35.0208 233 42.75C231.889 35.0208 230.778 30.6042 229.667 29.5C228.555 28.3958 226.333 28.3958 223 29.5L233 9.625Z" />
            <path  d="M310.616 38.6667C314.873 45.5152 319.663 48.9393 324.985 48.9393V57L323.389 51.3575C318.599 50.5515 313.01 48.9393 308.221 40.0727L310.616 38.6667ZM344.384 38.6667L346.779 40.0727C341.99 48.9393 336.401 50.5515 331.611 51.3575L330.015 57V48.9393C335.337 48.9393 340.127 45.5152 344.384 38.6667ZM327.5 7L334.206 20.3333H330.853L327.5 42L324.147 20.3333H320.794L327.5 7ZM320.794 22L322.471 30.3333H310.735L316.251 31.933C309.129 34.0512 303.378 36.8512 299 40.3333C301.561 36.7688 304.474 33.5543 307.739 30.69L300.676 23.6667L302.125 24.3868C305.644 26.1358 308.386 27.499 310.352 28.4763L310.395 28.4977C313.565 26.0365 317.031 23.8707 320.794 22ZM334.206 22C343.147 26.4445 350.412 32.5555 356 40.3333C351.622 36.8512 345.871 34.0512 338.749 31.933L344.265 30.3333H332.529L334.206 22ZM322.471 2V12L317.441 20.3333H312.412L317.441 12L322.471 2ZM332.529 2L337.559 12L342.588 20.3333H337.559L332.529 12V2Z" />
        </g>
    </symbol>
    <symbol id="sage-skills" viewBox="0 0 357 53">
        <g>
            <path d="M148.923 42.9063V10.0937H153.769L155.923 12.828L159.692 10.0937L164 9V14.4687L159.692 17.7499L164 22.125V28.6874H161.846L155.923 25.4063L164 34.1562V41.2657L158.615 44L155.923 41.2657L153.769 42.9063H148.923ZM112.308 43.4532V10.0939H126.846V43.4532H123.077L117.692 40.7189V43.4532H112.308ZM130.616 43.4532V10.0939H136L138.154 17.7501L139.77 10.0939H145.154V43.4532H138.154L136 40.7189L134.385 43.4532H130.616ZM94 10.6406L102.077 20.4844L94 17.7499V35.2501C95.0769 36.1615 96.5847 38.422 94 40.1718V43.4531H100.462L102.616 40.7187L104.769 43.4531H108.539V10.6406H94Z"/>
            <path  d="M236.227 2.15447C236.227 3.34434 235.261 4.30892 234.069 4.30892C232.877 4.30892 231.911 3.34434 231.911 2.15447C231.911 0.964583 232.877 0 234.069 0C235.261 0 236.227 0.964583 236.227 2.15447ZM242.269 10.3413C242.269 11.7692 241.109 12.9266 239.679 12.9266C238.249 12.9266 237.089 11.7692 237.089 10.3413C237.089 8.91341 238.249 7.75596 239.679 7.75596C241.109 7.75596 242.269 8.91341 242.269 10.3413ZM229.32 12.0649C230.274 12.0649 231.047 11.2933 231.047 10.3413C231.047 9.38947 230.274 8.61769 229.32 8.61769C228.367 8.61769 227.594 9.38947 227.594 10.3413C227.594 11.2933 228.367 12.0649 229.32 12.0649ZM245.432 17.5336C247.168 19.825 248.197 22.6789 248.197 25.7727C248.197 33.325 242.064 39.4474 234.499 39.4474C226.934 39.4474 220.802 33.325 220.802 25.7727C220.802 22.6787 221.831 19.8246 223.567 17.5332L208.172 5.17106C207.597 6.89468 208.431 12.2377 211.193 14.6507C212.482 15.7762 213.664 16.7892 214.704 17.6809C215.894 18.7009 216.9 19.5625 217.667 20.2523V23.2685L209.205 16.8051C209.493 18.9596 210.671 23.8024 213.261 25.9568C214.875 27.3003 216.301 28.3193 217.123 28.9076C217.356 29.074 217.54 29.206 217.667 29.3009V32.7481L212.056 28.0083C211.769 30.8809 214.043 36.587 217.064 38.7805C218.977 40.1698 222.219 42.8927 225.554 45.6939C228.839 48.4537 232.215 51.2893 234.5 53C236.785 51.2893 240.161 48.4535 243.446 45.6939C246.781 42.8928 250.023 40.1695 251.936 38.7804C254.957 36.5867 257.231 30.8808 256.944 28.0081L251.333 32.748V29.3008C251.908 28.8698 253.577 27.5772 255.649 25.8537C258.178 23.7492 258.786 19.1779 259.081 16.9589L259.102 16.8049L251.333 23.2682V20.2521C252.1 19.5624 253.105 18.7009 254.296 17.6809L254.298 17.6793C255.337 16.7879 256.519 15.7753 257.807 14.6505C260.569 12.2375 261.403 6.89438 260.828 5.17087L245.432 17.5336ZM234.5 36.195C240.221 36.195 244.858 31.565 244.858 25.8536C244.858 20.1422 240.221 15.5123 234.5 15.5123C228.779 15.5123 224.141 20.1422 224.141 25.8536C224.141 31.565 228.779 36.195 234.5 36.195Z"/>
            <path fill-rule="evenodd" clip-rule="evenodd" d="M308.776 26.894L331 50L353.224 26.894C358.301 21.6157 358.252 13.2682 353.114 8.04935C347.798 2.65022 339.076 2.65022 333.76 8.04935L331 10.8531L328.24 8.04935C322.924 2.65022 314.202 2.65022 308.886 8.04935C303.748 13.2682 303.699 21.6157 308.776 26.894ZM342.002 24.4373C338.938 24.2861 336.34 23.1021 334.209 20.8852C332.077 18.6685 331.012 16.0242 331.012 12.9525C331.012 16.0242 329.942 18.6685 327.803 20.8852C325.664 23.1021 323.062 24.2861 319.998 24.4373C322.016 24.5282 323.866 25.0994 325.55 26.1511C327.234 27.2027 328.565 28.5947 329.544 30.3274C330.522 32.0599 331.012 33.9401 331.012 35.9677C331.012 32.8808 332.077 30.2252 334.209 28.0009C336.34 25.7765 338.938 24.5887 342.002 24.4373Z" />
            <path fill-rule="evenodd" clip-rule="evenodd" d="M46.0318 24C46.0318 35.1509 36.6156 44.1905 25 44.1905C13.3844 44.1905 3.96825 35.1509 3.96825 24C3.96825 12.8491 13.3844 3.80952 25 3.80952C36.6156 3.80952 46.0318 12.8491 46.0318 24ZM50 24C50 37.2548 38.8071 48 25 48C11.1929 48 0 37.2548 0 24C0 10.7452 11.1929 0 25 0C38.8071 0 50 10.7452 50 24ZM21.8253 12.1904L17.4376 8.32933C14.2983 9.68747 11.6524 11.9104 9.8293 14.682L11.9046 18.6667L8.41514 17.3267C7.59486 19.2696 7.14305 21.3937 7.14305 23.6192C7.14305 24.6669 7.24319 25.6923 7.43472 26.6868L13.4919 25.5237L19.0475 16.3809L17.8569 25.5237L10.2407 33.1533C11.069 34.3012 12.0429 35.3449 13.1365 36.26L13.0951 36.1904L17.4601 32.7619L15.1915 37.7399C17.9075 39.4117 21.1375 40.3811 24.6033 40.3811C28.9051 40.3811 32.8436 38.8877 35.8868 36.4113L33.3332 33.1428L23.8094 32L32.5396 29.3333L32.9364 24.3809L28.5712 14.8571L35.7142 24V28.9523L40.0031 31.5257C41.3179 29.1704 42.0636 26.4784 42.0636 23.6192C42.0636 19.7968 40.731 16.2733 38.4872 13.4535L34.9206 17.9047L36.7508 11.5789C33.6081 8.65613 29.3246 6.85733 24.6033 6.85733C24.4706 6.85733 24.3382 6.8588 24.2062 6.8616V10.2856L25.3967 12.1904L23.4125 19.8095L21.8253 12.1904Z" />
        </g>
    </symbol>
    <symbol id="sage-skill-1" viewBox="0 0 50 48">
        <g>
        <path fill-rule="evenodd" clip-rule="evenodd" d="M46.0318 24C46.0318 35.1509 36.6156 44.1905 25 44.1905C13.3844 44.1905 3.96825 35.1509 3.96825 24C3.96825 12.8491 13.3844 3.80952 25 3.80952C36.6156 3.80952 46.0318 12.8491 46.0318 24ZM50 24C50 37.2548 38.8071 48 25 48C11.1929 48 0 37.2548 0 24C0 10.7452 11.1929 0 25 0C38.8071 0 50 10.7452 50 24ZM21.8253 12.1904L17.4376 8.32933C14.2983 9.68747 11.6524 11.9104 9.8293 14.682L11.9046 18.6667L8.41514 17.3267C7.59486 19.2696 7.14305 21.3937 7.14305 23.6192C7.14305 24.6669 7.24319 25.6923 7.43472 26.6868L13.4919 25.5237L19.0475 16.3809L17.8569 25.5237L10.2407 33.1533C11.069 34.3012 12.0429 35.3449 13.1365 36.26L13.0951 36.1904L17.4601 32.7619L15.1915 37.7399C17.9075 39.4117 21.1375 40.3811 24.6033 40.3811C28.9051 40.3811 32.8436 38.8877 35.8868 36.4113L33.3332 33.1428L23.8094 32L32.5396 29.3333L32.9364 24.3809L28.5712 14.8571L35.7142 24V28.9523L40.0031 31.5257C41.3179 29.1704 42.0636 26.4784 42.0636 23.6192C42.0636 19.7968 40.731 16.2733 38.4872 13.4535L34.9206 17.9047L36.7508 11.5789C33.6081 8.65613 29.3246 6.85733 24.6033 6.85733C24.4706 6.85733 24.3382 6.8588 24.2062 6.8616V10.2856L25.3967 12.1904L23.4125 19.8095L21.8253 12.1904Z" />
        </g>
    </symbol>
    <symbol id="sage-skill-2" viewBox="0 0 53 53">
        <g>
        <path fill-rule="evenodd" clip-rule="evenodd" d="M28.2267 2.15447C28.2267 3.34434 27.2605 4.30892 26.0686 4.30892C24.8768 4.30892 23.9106 3.34434 23.9106 2.15447C23.9106 0.964583 24.8768 0 26.0686 0C27.2605 0 28.2267 0.964583 28.2267 2.15447ZM34.2686 10.3413C34.2686 11.7692 33.1092 12.9266 31.679 12.9266C30.2488 12.9266 29.0893 11.7692 29.0893 10.3413C29.0893 8.91341 30.2488 7.75596 31.679 7.75596C33.1092 7.75596 34.2686 8.91341 34.2686 10.3413ZM21.3204 12.0649C22.274 12.0649 23.0469 11.2933 23.0469 10.3413C23.0469 9.38947 22.274 8.61769 21.3204 8.61769C20.367 8.61769 19.5941 9.38947 19.5941 10.3413C19.5941 11.2933 20.367 12.0649 21.3204 12.0649ZM37.4324 17.5336C39.1676 19.825 40.1968 22.6789 40.1968 25.7727C40.1968 33.325 34.0642 39.4474 26.4994 39.4474C18.9344 39.4474 12.8018 33.325 12.8018 25.7727C12.8018 22.6787 13.8312 19.8246 15.5667 17.5332L0.171997 5.17106C-0.403479 6.89468 0.430932 12.2377 3.19323 14.6507C4.48166 15.7762 5.66368 16.7892 6.7042 17.6809C7.89434 18.7009 8.89972 19.5625 9.66734 20.2523V23.2685L1.20483 16.8051C1.49255 18.9596 2.67087 23.8024 5.26052 25.9568C6.87527 27.3003 8.30053 28.3193 9.12306 28.9076C9.35581 29.074 9.54043 29.206 9.66734 29.3009V32.7481L4.05638 28.0083C3.76865 30.8809 6.04258 36.587 9.06373 38.7805C10.977 40.1698 14.2189 42.8927 17.5537 45.6939C20.8393 48.4537 24.2152 51.2893 26.5001 53C28.7849 51.2893 32.1605 48.4535 35.4461 45.6939C38.7809 42.8928 42.0229 40.1695 43.9362 38.7804C46.9574 36.5867 49.2314 30.8808 48.9435 28.0081L43.3326 32.748V29.3008C43.9081 28.8698 45.577 27.5772 47.6487 25.8537C50.1783 23.7492 50.786 19.1779 51.0811 16.9589L51.1015 16.8049L43.3326 23.2682V20.2521C44.1002 19.5624 45.1053 18.7009 46.2956 17.6809L46.2975 17.6793C47.3375 16.7879 48.5191 15.7753 49.8067 14.6505C52.569 12.2375 53.4035 6.89438 52.828 5.17087L37.4324 17.5336ZM26.4997 36.195C32.2206 36.195 36.8582 31.565 36.8582 25.8536C36.8582 20.1422 32.2206 15.5123 26.4997 15.5123C20.7788 15.5123 16.141 20.1422 16.141 25.8536C16.141 31.565 20.7788 36.195 26.4997 36.195Z" />
        </g>
    </symbol>

    <symbol id="sage-skill-3" viewBox="0 0 52 46">
        <g>
        <path fill-rule="evenodd" clip-rule="evenodd" d="M3.77582 22.894L26 46L48.2243 22.894C53.301 17.6157 53.2523 9.26822 48.1139 4.04935C42.7983 -1.34978 34.0762 -1.34978 28.7605 4.04935L26 6.85315L23.2395 4.04935C17.9237 -1.34978 9.20168 -1.34978 3.88599 4.04935C-1.25226 9.26822 -1.30106 17.6157 3.77582 22.894ZM37.0023 20.4373C33.938 20.2861 31.3401 19.1021 29.2087 16.8852C27.0774 14.6685 26.0116 12.0242 26.0116 8.95253C26.0116 12.0242 24.9421 14.6685 22.8031 16.8852C20.6641 19.1021 18.0624 20.2861 14.9981 20.4373C17.0157 20.5282 18.8665 21.0994 20.5504 22.1511C22.2342 23.2027 23.5654 24.5947 24.5439 26.3274C25.5224 28.0599 26.0116 29.9401 26.0116 31.9677C26.0116 28.8808 27.0774 26.2252 29.2087 24.0009C31.3401 21.7765 33.938 20.5887 37.0023 20.4373Z"/>
        </g>
    </symbol>
    <symbol id="sage-skill-4" viewBox="0 0 70 35">
        <g>
        <path fill-rule="evenodd" clip-rule="evenodd" d="M54.9228 33.9063V1.0937H59.769L61.9229 3.82803L65.6921 1.0937L70 0V5.46866L65.6921 8.74992L70 13.125V19.6874H67.8461L61.9229 16.4063L70 25.1562V32.2657L64.6152 35L61.9229 32.2657L59.769 33.9063H54.9228ZM18.3076 34.4532V1.09386H32.8463V34.4532H29.0769L23.6923 31.7189V34.4532H18.3076ZM36.6156 34.4532V1.09386H42.0002L44.1542 8.75008L45.7696 1.09386H51.1542V34.4532H44.1542L42.0002 31.7189L40.3848 34.4532H36.6156ZM0 1.64063L8.07705 11.4844L0 8.74992V26.2501C1.07694 27.1615 2.58466 29.422 0 31.1718V34.4531H6.46164L8.61553 31.7187L10.7694 34.4531H14.5387V1.64063H0Z"/>
        </g>
    </symbol>
    <symbol id="phoenix-skill-1" viewBox="0 0 53 72">
        <g>
        <path fill-rule="evenodd" clip-rule="evenodd" d="M48.8253 0L38.9446 19.5112C42.1634 22.5578 44.17 26.8632 44.17 31.6355C44.17 32.6713 44.0754 33.6852 43.8946 34.6688L53 41.997L42.1638 39.5701C39.7246 44.0695 35.2753 47.3288 30.0145 48.1536L27.3838 72L25.2151 48.2195C23.6478 48.0181 22.1483 47.6013 20.7474 47.0001L14.6727 51.0776L17.3265 45.0254C13.4109 42.102 10.8198 37.5139 10.611 32.3153L0 28.2009L11.2462 27.0165C11.9242 24.6613 13.1077 22.5191 14.6723 20.7136L14.6727 16.5244L19.6956 16.7665C21.0923 16.0484 22.6032 15.5198 24.1941 15.2149H24.0266L26.6043 1.53565L29.1445 15.0042C31.0976 15.207 32.9512 15.7434 34.6467 16.5553L48.8253 0ZM27.3838 23.8318C23.0573 23.8318 19.5502 27.3257 19.5502 31.6355C19.5502 35.9454 23.0573 39.4393 27.3838 39.4393C31.7101 39.4393 35.2174 35.9454 35.2174 31.6355C35.2174 27.3257 31.7101 23.8318 27.3838 23.8318Z"/>
        </g>
    </symbol>
    <symbol id="phoenix-skill-2" viewBox="0 0 36 65">
        <g>
        <path fill-rule="evenodd" clip-rule="evenodd" d="M14.9578 0C12.6832 8.4565 9.63777 24.4144 17.3122 27.6382C22.4288 29.7876 23.4333 23.9053 20.3265 9.99184C25.4243 17.3133 27.6158 24.3754 26.9011 31.1782C27.8487 31.7211 28.7437 32.349 29.5748 33.0512C30.798 32.3138 31.4094 30.901 31.4094 28.8149C32.7331 31.2424 33.0577 33.6461 32.3829 36.0259C34.653 39.0531 36 42.8222 36 46.9074C36 56.8997 27.9411 65 18 65C8.05888 65 0 56.8997 0 46.9074C0 44.0276 0.669411 41.305 1.86044 38.888C0.689685 36.1612 1.00061 32.4107 2.79398 27.6382C2.79398 31.9353 3.60228 32.9691 4.55684 33.5771C4.82571 33.7482 5.14629 33.8472 5.51861 33.8738C6.06013 33.3471 6.63309 32.8579 7.23524 32.4056C6.29053 19.9418 8.86434 9.13938 14.9578 0ZM18 38.3374C13.291 38.3374 9.47368 42.1743 9.47368 46.9074C9.47368 50.5931 11.7883 53.7353 15.0363 54.9456C15.3493 51.9813 16.5763 49.9449 18.7181 48.833C18.7181 51.2085 18.4089 53.6261 20.0257 55.2334C23.7587 54.3182 26.5263 50.9376 26.5263 46.9074C26.5263 42.1743 22.709 38.3374 18 38.3374Z" />
        </g>
    </symbol>
    <symbol id="phoenix-skill-3" viewBox="0 0 69 51">
        <g>
        <path fill-rule="evenodd" clip-rule="evenodd" d="M14.439 0.0300327C11.9533 14.5257 14.8036 35.4945 32.5833 51C24.017 50.5963 17.1802 49.4018 12.0733 47.4166C15.1923 45.42 16.7517 44.4219 16.7517 44.4219C-1.27383 32.5954 -1.11398 17.7607 0.919944 13.9241C2.85595 18.0753 4.896 20.5902 7.04008 21.4689C6.38126 12.2321 8.84753 5.08583 14.439 0.0300327ZM54.561 0C60.1525 5.0558 62.6187 12.202 61.9599 21.4389C64.1041 20.5604 66.144 18.0453 68.08 13.8943C70.114 17.7306 70.2738 32.5654 52.2484 44.3919C52.2484 44.3919 53.8078 45.3902 56.9268 47.3866C51.8198 49.3718 44.983 50.5663 36.4167 50.97C54.1965 35.4645 57.0467 14.4957 54.561 0ZM45.8994 25.0605C46.7893 29.9374 41.8065 35.306 34.5019 39.6421L34.5021 39.6434H34.5C27.1956 35.306 22.213 29.9374 23.1027 25.0605C23.9925 20.1828 32.0419 18.5434 34.5021 25.0605L34.5 25.0584L34.6451 24.7002C37.2616 18.6065 45.0264 20.275 45.8994 25.0605ZM34.5 9.43897C36.6172 9.43897 38.3334 11.1293 38.3334 13.2145C38.3334 15.2996 36.6172 16.99 34.5 16.99C32.3829 16.99 30.6667 15.2996 30.6667 13.2145C30.6667 11.1293 32.3829 9.43897 34.5 9.43897Z"/>
        </g>
    </symbol>
    <symbol id="phoenix-skill-4" viewBox="0 0 57 43">
        <g>
        <path fill-rule="evenodd" clip-rule="evenodd" d="M37.7642 0C47.3811 1.52547 52.9225 13.2564 53.2543 17.2683C54.3651 16.0123 54.7227 13.937 54.327 11.0427C56.3655 12.7653 56.9562 13.8955 56.9958 17.9993L56.998 18.4676L57 43C53.6268 41.7592 49.4084 40.742 44.6161 40.0315L44.6154 12.8506C44.6154 8.43299 41.0911 2.44567 37.7642 0ZM0.00119031 10.7853C5.86295 22.7594 9.95656 29.7233 12.2817 31.6767L12.281 40.0413C7.53339 40.7487 3.3516 41.7573 0 42.9862L0.00119031 10.7853ZM29.5394 0.389409C28.2299 4.94104 27.5248 9.6148 27.4242 14.4107L27.4115 15.6123L27.412 38.9073C22.8875 38.9465 18.5657 39.2341 14.5865 39.727L14.5871 12.4655C14.5871 8.01744 12.8253 4.93915 10.6997 2.55437C13.2914 3.38324 15.2034 4.9548 16.4363 7.26924C18.2853 10.7409 17.1676 19.835 20.5862 19.835C24.0049 19.835 24.0081 14.2027 24.3965 9.92904C24.6555 7.07986 26.3699 3.9001 29.5394 0.389409ZM32.6974 7.32256C32.6451 14.0466 33.6163 17.4086 35.6106 17.4086C37.6051 17.4086 38.1714 14.351 37.31 8.23536C39.9404 11.362 41.2556 14.0679 41.2556 16.3529L41.2561 39.5947C37.7414 39.1997 33.9774 38.9628 30.0563 38.9126V15.4907C30.0563 11.8776 30.9366 9.15487 32.6974 7.32256ZM4.6823 3.16618C8.36022 5.30706 10.4644 7.72366 10.9948 10.4163L11.0573 10.7853L7.08326 18.9191C7.51562 14.5591 6.71527 9.30812 4.6823 3.16618Z"/>
        </g>
    </symbol>
    <symbol id="jett-skill-1" viewBox="0 0 47 59">
        <g>
        <path fill-rule="evenodd" clip-rule="evenodd" d="M24.5176 0C24.5176 2.49852 24.5465 4.41858 23.3404 6.71584L23.5 6.71404C36.4786 6.71404 47 17.3342 47 30.435C47 38.2908 43.2167 45.2548 37.3888 49.5716C35.4831 51.4224 31.1156 54.5657 24.2855 59C24.7147 57.1312 24.4847 55.5159 23.5955 54.1538L23.5 54.1559C10.5214 54.1559 0 43.5356 0 30.435C0 21.2562 5.16465 13.2953 12.7206 9.35117C18.8496 5.0701 22.7814 1.95293 24.5176 0ZM23.5 16.9435C16.0836 16.9435 10.0715 23.0121 10.0715 30.4982C10.0715 31.9083 10.2847 33.268 10.6805 34.5463C14.7006 37.4345 22.5148 35.7183 23.2749 27.1097C25.0457 34.0253 23.8094 40.947 15.2803 41.2176C17.5509 42.9949 20.403 44.0532 23.5 44.0532C30.9164 44.0532 36.9286 37.9844 36.9286 30.4982C36.9286 23.0121 30.9164 16.9435 23.5 16.9435Z"/>
        </g>
    </symbol>
    <symbol id="jett-skill-2" viewBox="0 0 58 45">
        <g>
        <path fill-rule="evenodd" clip-rule="evenodd" d="M35.2692 11.25C34.1496 15.5358 31.3504 17.6786 26.8718 17.6786H0C1.11965 14.4643 2.79915 12.8571 5.03838 12.8571H25.1922C22.9529 10.7143 20.7136 9.64286 18.4743 9.64286H10.0769C11.1456 7.59745 13.2346 6.52821 16.3438 6.43516L17.4375 6.41973C22.25 6.28602 26.8003 4.6162 25.1922 0H33.5897L57.4665 21.325C58.1446 21.9307 58.1812 22.9478 57.5483 23.5966C57.522 23.6236 57.4948 23.6497 57.4665 23.675L33.5897 45H25.1922C26.8718 40.1786 21.8334 38.5714 16.7948 38.5714C13.5886 38.5714 11.4025 37.5952 10.2365 35.6427L10.0769 35.3571H18.4743C20.5819 35.3571 22.6895 34.4081 24.7972 32.5099L25.1922 32.1429H5.03838C2.89651 32.1429 1.26675 30.6725 0.14921 27.7316L0 27.3214H26.8718C31.201 27.3214 33.961 29.3238 35.1517 33.3286L35.2692 33.75L47.0256 22.5L35.2692 11.25Z"/>
        </g>
    </symbol>
    <symbol id="jett-skill-3" viewBox="0 0 53 58">
        <g>
        <path fill-rule="evenodd" clip-rule="evenodd" d="M26.5 0L26.7459 0.581669C29.2638 6.6983 30.9958 15.9263 31.9415 28.2655L32.0279 29.4315L28.0842 34.3385V36.4377C29.055 36.4377 32.0279 38.4726 32.0279 41.6087C32.0279 44.6083 30.0664 46.0991 29.3532 46.223L29.264 46.2314V56.6235C29.264 57.4174 28.4614 57.8701 26.8562 57.9814L26.5 58C24.6574 57.933 23.7361 57.4741 23.7361 56.6235V46.2314C23.1161 46.2314 20.9721 44.7447 20.9721 41.6087C20.9721 38.4726 23.9451 36.4377 24.9158 36.4377V34.3385L20.9721 29.4315C21.9258 16.1022 23.7684 6.29159 26.5 0ZM0.0213617 8.96575L0.422448 9.35101C4.17729 13.0347 8.25352 19.1955 12.6511 27.8333L13.1235 28.7682L11.5489 33.5639L12.1787 35.0974C12.9287 34.7993 15.8364 35.3728 16.7773 37.6638C17.7184 39.9546 16.5079 41.6992 16.029 41.8895C18.215 47.2118 19.4356 50.1837 19.6909 50.8052C19.928 51.382 19.4498 51.9562 18.2564 52.5276L17.9684 52.6593C16.5245 53.1762 15.6749 53.124 15.4197 52.5025L11.7577 43.587C11.2788 43.7773 9.17607 43.3496 8.23497 41.0587C7.29404 38.7677 8.98068 36.3685 9.73063 36.0704L9.10064 34.5367L4.58115 32.1631C1.31852 22.1332 -0.201433 14.4007 0.0213617 8.96575ZM52.9786 8.96575C53.2014 14.4007 51.6815 22.1332 48.4189 32.1631L43.8994 34.5367L43.2694 36.0704C44.0193 36.3685 45.706 38.7677 44.765 41.0587C43.8239 43.3496 41.7213 43.7773 41.2423 43.587L37.5804 52.5025C37.3251 53.124 36.4755 53.1762 35.0316 52.6593L34.7436 52.5276C33.5503 51.9562 33.0722 51.382 33.3091 50.8052C33.5644 50.1837 34.785 47.2118 36.971 41.8895C36.4921 41.6992 35.2816 39.9546 36.2227 37.6638C37.1636 35.3728 40.0714 34.7993 40.8213 35.0974L41.4511 33.5639L39.8765 28.7682L40.3489 27.8333C44.7465 19.1955 48.8227 13.0347 52.5776 9.35101L52.9786 8.96575ZM26.5 38.9688C24.9734 38.9688 23.7361 40.1861 23.7361 41.6876C23.7361 43.1891 24.9734 44.4064 26.5 44.4064C28.0266 44.4064 29.264 43.1891 29.264 41.6876C29.264 40.1861 28.0266 38.9688 26.5 38.9688ZM11.7141 37.4328C10.5346 37.9016 9.94369 39.1707 10.3944 40.2676C10.8449 41.3645 12.1662 41.8737 13.3456 41.405C14.5252 40.9362 15.116 39.6671 14.6655 38.5702C14.215 37.4733 12.8935 36.9641 11.7141 37.4328ZM41.286 37.4328C40.1065 36.9641 38.7851 37.4733 38.3346 38.5702C37.8841 39.6671 38.4748 40.9362 39.6544 41.405C40.8339 41.8737 42.1552 41.3645 42.6057 40.2676C43.0563 39.1707 42.4654 37.9016 41.286 37.4328Z"/>
        </g>
    </symbol>
    <symbol id="jett-skill-4" viewBox="0 0 43 57">
        <g>
        <path fill-rule="evenodd" clip-rule="evenodd" d="M22.5331 41.3429L29.1486 46.6167C29.5408 46.9295 29.7692 47.4029 29.7692 47.9036V57L21.5 50.4076L13.2308 57V47.9036C13.2308 47.4029 13.4592 46.9295 13.8514 46.6167L20.4669 41.3429C21.0708 40.8614 21.9292 40.8614 22.5331 41.3429ZM22.6064 21.7346L37.4909 35.084C37.8395 35.3965 38.0384 35.8418 38.0384 36.309V45.4635L22.6064 31.623C21.9775 31.059 21.0225 31.059 20.3936 31.623L4.96156 45.4635V36.309C4.96156 35.8418 5.16048 35.3965 5.5091 35.084L20.3936 21.7346C21.0225 21.1704 21.9775 21.1704 22.6064 21.7346ZM22.6694 0.482707L42.0312 19.7769C42.6515 20.3951 43 21.2334 43 22.1076V33.9269L36.3847 28.9828V24.7212C36.3847 24.2841 36.2103 23.8648 35.9002 23.5557L22.6694 10.3711C22.0236 9.72752 20.9764 9.72752 20.3306 10.3711L7.09978 23.5557C6.7897 23.8648 6.61531 24.2841 6.61531 24.7212V28.9828L0 33.9269V22.1076C0 21.2334 0.34846 20.3951 0.968774 19.7769L20.3306 0.482707C20.9764 -0.160902 22.0236 -0.160902 22.6694 0.482707Z"/>
        </g>
    </symbol>
    <symbol id="sova-skill-1" viewBox="0 0 61 58">
        <g>
        <path fill-rule="evenodd" clip-rule="evenodd" d="M0 23.8824L15.25 40.9412L18.6389 34.1176L28.8056 58L18.6389 47.7647L15.25 54.5882L0 23.8824ZM61 23.8824L45.75 54.5882L42.3611 47.7647L32.1944 58L42.3611 34.1176L45.75 40.9412L61 23.8824ZM30.5 0C32.7592 13.6471 36.713 21.0392 42.3611 22.1765L30.5 46.0588L18.6389 22.1765C24.1824 21.0603 28.0937 13.9186 30.3727 0.751731L30.5 0Z"/>
        </g>
    </symbol>
    <symbol id="sova-skill-2" viewBox="0 0 60 53">
        <g>
        <path fill-rule="evenodd" clip-rule="evenodd" d="M55 46.375V53H5V46.375H55ZM27.1687 6.79394L23.9703 12.6021C16.8072 15.0802 11.6667 21.8497 11.6667 29.8125C11.6667 35.0337 13.8768 39.7419 17.418 43.0637L10.8503 43.0645C8.21333 39.3083 6.66667 34.7398 6.66667 29.8125C6.66667 17.9587 15.6173 8.18254 27.1687 6.79394ZM32.833 6.7941C44.3835 8.18353 53.3333 17.9594 53.3333 29.8125C53.3333 34.7398 51.7867 39.3083 49.1497 43.0645L42.5815 43.064C46.123 39.7422 48.3333 35.0338 48.3333 29.8125C48.3333 21.8509 43.1943 15.0821 36.033 12.6032L32.833 6.7941ZM30 0C46.5685 0 60 13.3476 60 29.8125C60 34.5724 58.8775 39.0716 56.8812 43.0633L53.0985 43.0637C55.3678 39.1655 56.6667 34.6398 56.6667 29.8125C56.6667 15.1769 44.7277 3.3125 30 3.3125C15.2723 3.3125 3.33333 15.1769 3.33333 29.8125C3.33333 34.6398 4.63217 39.1655 6.9015 43.0637L3.1188 43.0633C1.1225 39.0716 0 34.5724 0 29.8125C0 13.3476 13.4315 0 30 0ZM30 6.625L40 26.5C36.6667 25.3958 34.4445 25.3958 33.3333 26.5C32.2222 27.6042 31.1112 32.0208 30 39.75C28.8888 32.0208 27.7778 27.6042 26.6667 26.5C25.5555 25.3958 23.3333 25.3958 20 26.5L30 6.625Z"/>
        </g>
    </symbol>
    <symbol id="sova-skill-3" viewBox="0 0 57 55">
        <g>
        <path fill-rule="evenodd" clip-rule="evenodd" d="M11.6156 36.6667C15.8733 43.5152 20.6632 46.9393 25.9853 46.9393V55L24.3886 49.3575C19.5988 48.5515 14.0104 46.9393 9.22059 38.0727L11.6156 36.6667ZM45.3844 36.6667L47.7794 38.0727C42.9896 46.9393 37.4012 48.5515 32.6114 49.3575L31.0147 55V46.9393C36.3368 46.9393 41.1267 43.5152 45.3844 36.6667ZM28.5 5L35.2059 18.3333H31.8529L28.5 40L25.1471 18.3333H21.7941L28.5 5ZM21.7941 20L23.4706 28.3333H11.7353L17.2512 29.933C10.1287 32.0512 4.37827 34.8512 0 38.3333C2.56106 34.7688 5.47418 31.5543 8.73944 28.69L1.67647 21.6667L3.12528 22.3868C6.64385 24.1358 9.38622 25.499 11.3524 26.4763L11.3951 26.4977C14.5645 24.0365 18.0308 21.8707 21.7941 20ZM35.2059 20C44.147 24.4445 51.4118 30.5555 57 38.3333C52.6217 34.8512 46.8713 32.0512 39.7488 29.933L45.2647 28.3333H33.5294L35.2059 20ZM23.4706 0V10L18.4412 18.3333H13.4118L18.4412 10L23.4706 0ZM33.5294 0L38.5588 10L43.5882 18.3333H38.5588L33.5294 10V0Z"/>
        </g>
    </symbol>
    <symbol id="sova-skill-4" viewBox="0 0 68 23">
        <g>
        <path d="M56.973 0C63.063 0 68 4.90902 68 10.9648C68 17.0205 63.063 21.9295 56.973 21.9295C51.5097 21.9295 46.9742 17.9788 46.0987 12.7938L44.108 12.7923V13.8628C44.108 14.3474 43.9146 14.8122 43.5699 15.1549L36.2184 22.4648C35.5007 23.1784 34.3371 23.1784 33.6194 22.4648L26.2681 15.1549C25.9234 14.8122 25.7297 14.3474 25.7297 13.8628V12.7923L21.9013 12.7938C21.0258 17.9788 16.4903 21.9295 11.027 21.9295C4.93696 21.9295 0 17.0205 0 10.9648C0 4.90902 4.93696 0 11.027 0C16.491 0 21.0269 3.95173 21.9017 9.13757L25.7297 9.13724V1.97488C25.7297 0.965508 26.5525 0.147365 27.5675 0.147365C27.9849 0.147365 28.3898 0.288487 28.7156 0.54773L33.7709 4.56912C34.442 5.10304 35.3958 5.10304 36.067 4.56912L41.1222 0.54773C41.9147 -0.0826345 43.0714 0.0450147 43.7054 0.833258C43.966 1.15723 44.108 1.55989 44.108 1.97488V9.13724L46.0983 9.13757C46.9731 3.95173 51.509 0 56.973 0ZM11.027 5.48238C7.982 5.48238 5.51352 7.93697 5.51352 10.9648C5.51352 13.9925 7.982 16.4471 11.027 16.4471C13.4271 16.4471 15.4689 14.9224 16.2263 12.7939L11.027 12.7923C10.012 12.7923 9.1892 11.974 9.1892 10.9648C9.1892 9.95555 10.012 9.13724 11.027 9.13724L16.2269 9.13741C15.47 7.0081 13.4277 5.48238 11.027 5.48238ZM56.973 5.48238C54.5723 5.48238 52.53 7.0081 51.7731 9.13741L56.973 9.13724C57.988 9.13724 58.8108 9.95555 58.8108 10.9648C58.8108 11.974 57.988 12.7923 56.973 12.7923L51.7737 12.7939C52.5311 14.9224 54.5729 16.4471 56.973 16.4471C60.0179 16.4471 62.4865 13.9925 62.4865 10.9648C62.4865 7.93697 60.0179 5.48238 56.973 5.48238Z"/>
        </g>
    </symbol>
    <symbol id="down-btn" viewBox="0 0 7 5">
        <g>
            <path d="M3.5 5L6.53109 0.5L0.468911 0.5L3.5 5Z"/>
        </g>
    </symbol>
    <symbol id="coin" viewBox="0 0 21 29">
        <g>
        <circle cx="10" cy="14" r="8" stroke-width="4"/>
        <path d="M12 5.19615L20.1962 3L17.1962 8.19615L12 5.19615Z"/>
        <path d="M8.19617 5.19615L1.46627e-05 3L3.00001 8.19615L8.19617 5.19615Z"/>
        <path d="M12 23.0001L20.1962 25.1963L17.1962 20.0001L12 23.0001Z"/>
        <path d="M8.19617 23.0001L1.46627e-05 25.1963L3.00001 20.0001L8.19617 23.0001Z"/>
        </g>
    </symbol>
    <symbol id="preloader-icon" viewBox="0 0 512 512">
        <g>
        <path d="M304 48c0 26.51-21.49 48-48 48s-48-21.49-48-48 21.49-48 48-48 48 21.49 48 48zm-48 368c-26.51 0-48 21.49-48 48s21.49 48 48 48 48-21.49 48-48-21.49-48-48-48zm208-208c-26.51 0-48 21.49-48 48s21.49 48 48 48 48-21.49 48-48-21.49-48-48-48zM96 256c0-26.51-21.49-48-48-48S0 229.49 0 256s21.49 48 48 48 48-21.49 48-48zm12.922 99.078c-26.51 0-48 21.49-48 48s21.49 48 48 48 48-21.49 48-48c0-26.509-21.491-48-48-48zm294.156 0c-26.51 0-48 21.49-48 48s21.49 48 48 48 48-21.49 48-48c0-26.509-21.49-48-48-48zM108.922 60.922c-26.51 0-48 21.49-48 48s21.49 48 48 48 48-21.49 48-48-21.491-48-48-48z">
		</path>
        </g>
    </symbol>
</svg>